<svg width="44" height="37" viewBox="0 0 44 37" fill="none" xmlns="http://www.w3.org/2000/svg">
<path d="M7.84473 28.4084C7.84473 25.8722 9.90074 23.8162 12.437 23.8162H12.7213C15.1732 23.8162 17.3915 22.3618 18.3691 20.1132C19.8028 16.8158 24.4626 16.7688 25.9624 20.0368L26.0301 20.1842C27.0458 22.3975 29.2579 23.8162 31.6932 23.8162H31.8269C34.2788 23.8162 36.2664 25.8038 36.2664 28.2557V29.6164C36.2664 32.1225 34.6719 34.2251 32.3411 34.6418C29.8329 35.0902 26.4193 35.506 22.3862 35.506C18.2191 35.506 14.5622 35.0621 11.8706 34.5955C9.49379 34.1835 7.84473 32.0543 7.84473 29.525V28.4084Z" stroke="#FFC524" stroke-width="2"/>
<path d="M11.2303 13.7835C12.0682 15.4191 12.3549 17.0916 12.1873 18.4488C12.0188 19.8126 11.4175 20.7475 10.5853 21.1738C9.753 21.6001 8.643 21.5419 7.4378 20.8818C6.23836 20.2249 5.04856 19.015 4.2107 17.3794C3.37284 15.7438 3.08609 14.0713 3.25374 12.7141C3.4222 11.3503 4.02349 10.4155 4.85575 9.98917C5.688 9.56283 6.798 9.62104 8.0032 10.2811C9.20264 10.938 10.3924 12.1479 11.2303 13.7835Z" stroke="#FFC524" stroke-width="2"/>
<path d="M20.1225 7.32908C20.5142 9.12456 20.3637 10.8148 19.8545 12.084C19.3429 13.3593 18.5226 14.1093 17.6089 14.3086C16.6953 14.508 15.6371 14.1678 14.6408 13.2215C13.6493 12.2797 12.8084 10.8057 12.4167 9.01025C12.025 7.21478 12.1755 5.52457 12.6847 4.25534C13.1963 2.98001 14.0167 2.23002 14.9303 2.0307C15.8439 1.83138 16.9021 2.17152 17.8984 3.11786C18.89 4.05967 19.7308 5.53361 20.1225 7.32908Z" stroke="#FFC524" stroke-width="2"/>
<path d="M32.717 13.7835C31.8791 15.4191 31.5924 17.0916 31.76 18.4488C31.9285 19.8126 32.5298 20.7475 33.362 21.1738C34.1943 21.6001 35.3043 21.5419 36.5095 20.8818C37.7089 20.2249 38.8987 19.015 39.7366 17.3794C40.5744 15.7438 40.8612 14.0713 40.6935 12.7141C40.5251 11.3503 39.9238 10.4155 39.0915 9.98917C38.2593 9.56283 37.1493 9.62104 35.9441 10.2811C34.7446 10.938 33.5548 12.1479 32.717 13.7835Z" stroke="#FFC524" stroke-width="2"/>
<path d="M23.8248 7.32908C23.433 9.12456 23.5835 10.8148 24.0927 12.084C24.6043 13.3593 25.4247 14.1093 26.3383 14.3086C27.2519 14.508 28.3101 14.1678 29.3064 13.2215C30.298 12.2797 31.1388 10.8057 31.5305 9.01025C31.9223 7.21478 31.7718 5.52457 31.2626 4.25534C30.751 2.98001 29.9306 2.23002 29.017 2.0307C28.1034 1.83138 27.0452 2.17152 26.0489 3.11786C25.0573 4.05967 24.2165 5.53361 23.8248 7.32908Z" stroke="#FFC524" stroke-width="2"/>
</svg>
