<svg width="35" height="39" viewBox="0 0 35 39" fill="none" xmlns="http://www.w3.org/2000/svg">
<path d="M24 18V3L32 9V18" stroke="#F87CFF" stroke-width="2" stroke-linejoin="round"/>
<mask id="path-2-inside-1_1132_1051" fill="white">
<path d="M22 27H34V36C34 37.6569 32.6569 39 31 39H25C23.3431 39 22 37.6569 22 36V27Z"/>
</mask>
<path d="M22 27H34H22ZM36 36C36 38.7614 33.7614 41 31 41H25C22.2386 41 20 38.7614 20 36H24C24 36.5523 24.4477 37 25 37H31C31.5523 37 32 36.5523 32 36H36ZM25 41C22.2386 41 20 38.7614 20 36V27H24V36C24 36.5523 24.4477 37 25 37V41ZM36 27V36C36 38.7614 33.7614 41 31 41V37C31.5523 37 32 36.5523 32 36V27H36Z" fill="#F87CFF" mask="url(#path-2-inside-1_1132_1051)"/>
<path d="M22 19H34V25C34 26.1046 33.1046 27 32 27H24C22.8954 27 22 26.1046 22 25V19Z" stroke="#F87CFF" stroke-width="2"/>
<path d="M7 14L2 4C2.66667 3 5 1 9 1C13 1 15.3333 3 16 4L11 14" stroke="#F87CFF" stroke-width="2"/>
<mask id="path-6-inside-2_1132_1051" fill="white">
<path d="M6 13H12V36C12 37.6569 10.6569 39 9 39C7.34315 39 6 37.6569 6 36V13Z"/>
</mask>
<path d="M6 13H12H6ZM14 36C14 38.7614 11.7614 41 9 41C6.23858 41 4 38.7614 4 36H8C8 36.5523 8.44772 37 9 37C9.55228 37 10 36.5523 10 36H14ZM9 41C6.23858 41 4 38.7614 4 36V13H8V36C8 36.5523 8.44772 37 9 37V41ZM14 13V36C14 38.7614 11.7614 41 9 41V37C9.55228 37 10 36.5523 10 36V13H14Z" fill="#F87CFF" mask="url(#path-6-inside-2_1132_1051)"/>
<line x1="7" y1="18" x2="12" y2="18" stroke="#F87CFF" stroke-width="2"/>
<line x1="7" y1="14" x2="12" y2="14" stroke="#F87CFF" stroke-width="2"/>
</svg>
