<svg width="20" height="19" viewBox="0 0 20 19" fill="none" xmlns="http://www.w3.org/2000/svg">
<path d="M16.4115 1.0004L17.1186 0.293297C16.7281 -0.0972269 16.095 -0.0972268 15.7044 0.293298L16.4115 1.0004ZM2.00336 15.4086L1.29626 14.7015L0.972448 15.0253L1.00606 15.482L2.00336 15.4086ZM2.1628 17.5749L1.1655 17.6483L1.22883 18.5089L2.0894 18.5722L2.1628 17.5749ZM3.91985 17.7042L3.84645 18.7015L4.2941 18.7345L4.61623 18.4219L3.91985 17.7042ZM18.7373 3.32617L19.4337 4.04384C19.6259 3.85733 19.7353 3.60151 19.7373 3.3337C19.7393 3.06588 19.6338 2.80845 19.4444 2.61907L18.7373 3.32617ZM1.00606 15.482L1.1655 17.6483L3.1601 17.5015L3.00067 15.3352L1.00606 15.482ZM2.0894 18.5722L3.84645 18.7015L3.99324 16.7069L2.2362 16.5776L2.0894 18.5722ZM19.4444 2.61907L17.1186 0.293297L15.7044 1.70751L18.0302 4.03328L19.4444 2.61907ZM4.61623 18.4219L16.0143 7.36185L14.6215 5.92652L3.22346 16.9866L4.61623 18.4219ZM16.0143 7.36185L19.4337 4.04384L18.0409 2.6085L14.6215 5.92652L16.0143 7.36185ZM15.7044 0.293298L12.4031 3.59468L13.8173 5.00889L17.1186 1.70751L15.7044 0.293298ZM12.4031 3.59468L1.29626 14.7015L2.71047 16.1157L13.8173 5.00889L12.4031 3.59468ZM16.0456 5.95831L13.8379 3.6159L12.3824 4.98766L14.5902 7.33006L16.0456 5.95831Z" fill="white"/>
</svg>
