<svg width="16" height="15" viewBox="0 0 16 15" fill="none" xmlns="http://www.w3.org/2000/svg">
<path d="M13.9171 7.99171C12.5071 10.487 8 13 8 13C8 13 3.49289 10.487 2.08294 7.99171C1.55748 7.06176 1.24782 6.51043 1.09676 5.48756C1.00122 4.84064 0.93808 4.4561 1.09676 3.81813C1.38282 2.66801 1.81419 1.81712 3.06911 1.31398C4.11327 0.89534 4.98349 0.89534 6.02765 1.31398C7.28257 1.81712 7.99955 2.56591 7.99955 2.56591C7.99955 2.56591 8.71743 1.81712 9.97235 1.31398C11.0165 0.89534 11.8867 0.89534 12.9309 1.31398C14.1858 1.81712 14.6172 2.66801 14.9032 3.81813C15.0619 4.4561 14.9988 4.84064 14.9032 5.48756C14.7522 6.51043 14.4425 7.06176 13.9171 7.99171Z" stroke="white" stroke-width="2"/>
</svg>
