<svg width="55" height="42" viewBox="0 0 55 42" fill="none" xmlns="http://www.w3.org/2000/svg">
<rect x="1" y="12" width="53" height="15" rx="6" stroke="#FF2F63" stroke-width="2"/>
<rect x="19" y="12" width="18" height="15" rx="6" stroke="#FF2F63" stroke-width="2"/>
<path d="M15 27L28 40L41 27" stroke="#FF2F63" stroke-width="2"/>
<path d="M28 13C28 13 27.5 1 16.5 1C5.5 1 5 13 5 13" stroke="#FF2F63" stroke-width="2"/>
<path d="M28 13C28 13 28.5 1 39.5 1C50.5 1 51 13 51 13" stroke="#FF2F63" stroke-width="2"/>
<circle cx="23" cy="23" r="0.5" fill="#FF2F63" stroke="#FF2F63"/>
<circle cx="23" cy="16" r="0.5" fill="#FF2F63" stroke="#FF2F63"/>
<circle cx="33" cy="16" r="0.5" fill="#FF2F63" stroke="#FF2F63"/>
<circle cx="33" cy="23" r="0.5" fill="#FF2F63" stroke="#FF2F63"/>
<circle cx="28" cy="22" r="0.5" fill="#FF2F63" stroke="#FF2F63"/>
<circle cx="28" cy="18" r="0.5" fill="#FF2F63" stroke="#FF2F63"/>
</svg>
